Coordinates
nRows=6
nColumns=38

# SIMM Motion File Header:
name Coordinates
datacolumns 38
datarows 6
otherdata 1
range 1.43629999999999990000 1.44130000000000000000

Units are S.I. units (second, meters, Newtons, ...)
Angles are in degrees.

endheader
time	pelvis_tilt	pelvis_list	pelvis_rotation	pelvis_tx	pelvis_ty	pelvis_tz	hip_flexion_r	hip_adduction_r	hip_rotation_r	knee_angle_r	ankle_angle_r	subtalar_angle_r	mtp_angle_r	hip_flexion_l	hip_adduction_l	hip_rotation_l	knee_angle_l	ankle_angle_l	subtalar_angle_l	mtp_angle_l	lumbar_extension	lumbar_bending	lumbar_rotation	arm_flex_r	arm_add_r	arm_rot_r	elbow_flex_r	pro_sup_r	wrist_flex_r	wrist_dev_r	arm_flex_l	arm_add_l	arm_rot_l	elbow_flex_l	pro_sup_l	wrist_flex_l	wrist_dev_l
      1.43629999999999990000	     -0.48074618723719209000	     -0.29258199479502134000	    -10.69452701366099700000	      0.79436828298659345000	      0.95356320779557002000	     -0.34754803744393314000	      0.24991391174676719000	      5.52774153421867350000	      9.44199706204028820000	    -33.19905680105656400000	     19.89853622920416500000	     -0.00000000000002288626	      0.00000000000001471579	     41.36403844464727100000	     -5.70957407137396890000	     -7.18453666611903150000	   -126.39556428541253000000	      4.77870299384767970000	     -0.00000000000000022903	      0.00000000000000342956	    -16.18427489836251400000	      1.42496495487268240000	      6.72313709492449800000	      7.82228847630297430000	    -29.34601031043585500000	     -1.01942327770893270000	    115.97948163755120000000	     71.48905886921569700000	      0.00000000000000014644	     -0.00000000000000230515	    -44.12210291977795900000	    -20.79856187557495800000	    -18.33099724499926000000	    107.20916715135812000000	     92.49440444234214500000	      0.00000000000000960627	     -0.00000000000000225635
      1.43730000000000000000	     -0.47414939370063774000	     -0.17735192828470403000	    -10.72945413292472800000	      0.79457077113644303000	      0.95410411380088689000	     -0.34732356902568134000	     -0.28633000103561723000	      5.29159411189600530000	      9.48158061862685920000	    -32.74386669972075500000	     19.61154922074768700000	     -0.00000000000002299010	      0.00000000000001509032	     41.69088776815701900000	     -5.61616728644732090000	     -7.21177032550219190000	   -125.92827341411038000000	      4.80537593054767510000	     -0.00000000000000028868	      0.00000000000000341556	    -16.11958442340537400000	      1.27109459248712290000	      6.92355342340926860000	      8.00368830097251480000	    -29.26697081851279600000	     -0.76844152550225797000	    116.17593456691101000000	     71.50470670465431100000	      0.00000000000000015776	     -0.00000000000000236251	    -44.27162617221337400000	    -20.90411718092895300000	    -18.50891103415611400000	    107.40053859442179000000	     92.25024811982230200000	      0.00000000000000971405	     -0.00000000000000227928
      1.43829999999999990000	     -0.47074489303997069000	     -0.06183925245654053200	    -10.76260421701692500000	      0.79478230888329593000	      0.95464573231496686000	     -0.34710224163988690000	     -0.82023212278630075000	      5.05379656942971070000	      9.51572801662062420000	    -32.28218426509678100000	     19.30649445947310000000	     -0.00000000000002304087	      0.00000000000001546426	     42.01503166660538100000	     -5.52276551008069210000	     -7.23891857258268430000	   -125.45266618912218000000	      4.83089699713589840000	     -0.00000000000000035292	      0.00000000000000339576	    -16.04997381360886200000	      1.11828028053568800000	      7.12302211511148280000	      8.18104736673427450000	    -29.19165591232389200000	     -0.51454896920138671000	    116.37398771329352000000	     71.52128029589199800000	      0.00000000000000017168	     -0.00000000000000244447	    -44.42193294699622200000	    -21.01216641889508500000	    -18.68522580731026000000	    107.59365018996020000000	     92.00728913554759500000	      0.00000000000000981057	     -0.00000000000000230052
      1.43930000000000000000	     -0.47064287604450677000	      0.05387665711597682700	    -10.79399522328962400000	      0.79500268078764569000	      0.95518756856907783000	     -0.34688401633036026000	     -1.35155538890117070000	      4.81458100677621740000	      9.54437677941449540000	    -31.81422658178260900000	     18.98316403830091700000	     -0.00000000000002310465	      0.00000000000001586292	     42.33659265260639200000	     -5.42945473317998940000	     -7.26588947797656370000	   -124.96890774433507000000	      4.85530322253896430000	     -0.00000000000000042725	      0.00000000000000337782	    -15.97536307919519200000	      0.96660802050581596000	      7.32142060111862400000	      8.35464078142737420000	    -29.11999280204096500000	     -0.25755382883677219000	    116.57344682399967000000	     71.53891462142678400000	      0.00000000000000018425	     -0.00000000000000254477	    -44.57315530626422600000	    -21.12253103941077000000	    -18.86014537579034900000	    107.78828663904937000000	     91.76594793221994500000	      0.00000000000000991477	     -0.00000000000000232250
      1.44029999999999990000	     -0.47393713356096906000	      0.16971541151448252000	    -10.82364691319665400000	      0.79523165568996135000	      0.95572915418950388000	     -0.34666885130534647000	     -1.88007311103359490000	      4.57417924823918120000	      9.56746619790420460000	    -31.34022814140652000000	     18.64136603115541000000	     -0.00000000000002324977	      0.00000000000001631305	     42.65567543212411300000	     -5.33631764318061650000	     -7.29259272522292700000	   -124.47715808767323000000	      4.87863166123628920000	     -0.00000000000000051963	      0.00000000000000335508	    -15.89569272353278400000	      0.81616017081007497000	      7.51862757738836060000	      8.52474438981144370000	    -29.05190335846650400000	      0.00272465084760462090	    116.77411855196550000000	     71.55774474151982600000	      0.00000000000000018236	     -0.00000000000000261324	    -44.72542087431017400000	    -21.23503212129433100000	    -19.03387522278119800000	    107.98424198799491000000	     91.52662456261380400000	      0.00000000000001002118	     -0.00000000000000234554
      1.44130000000000000000	     -0.48070550827908221000	      0.28559554666665393000	    -10.85158078385192800000	      0.79546898730434590000	      0.95627004743344712000	     -0.34645670252602107000	     -2.40556851771696100000	      4.33282248482482490000	      9.58493661512533810000	    -30.86044100387565000000	     18.28092911416899800000	     -0.00000000000002338525	      0.00000000000001676603	     42.97236720317037100000	     -5.24343361942162020000	     -7.31893964950685660000	   -123.97757202735158000000	      4.90091937201226370000	     -0.00000000000000060819	      0.00000000000000332349	    -15.81092318051014800000	      0.66701585108947747000	      7.71452361274133210000	      8.69163341204381550000	    -28.98730489759315500000	      0.26645528256207540000	    116.97581128238259000000	     71.57790496856407000000	      0.00000000000000017114	     -0.00000000000000266492	    -44.87885193963877100000	    -21.34949067884473500000	    -19.20662139950738700000	    108.18131936929910000000	     91.28969764816486100000	      0.00000000000001012707	     -0.00000000000000237073
